<?xml version="1.0" encoding="UTF-8"?>
<svg width="117px" height="24px" viewBox="0 0 117 24" version="1.1" xmlns="http://www.w3.org/2000/svg" xmlns:xlink="http://www.w3.org/1999/xlink">
    <!-- Generator: Sketch 52.5 (67469) - http://www.bohemiancoding.com/sketch -->
    <title>Group 3</title>
    <desc>Created with Sketch.</desc>
    <defs>
        <radialGradient cx="-83.011327%" cy="43.885342%" fx="-83.011327%" fy="43.885342%" r="211.833616%" gradientTransform="translate(-0.830113,0.438853),scale(0.923077,1.000000),translate(0.830113,-0.438853)" id="radialGradient-1">
            <stop stop-color="#FFFFFF" offset="0%"></stop>
            <stop stop-color="#4E4D64" stop-opacity="0" offset="100%"></stop>
        </radialGradient>
    </defs>
    <g id="FIN" stroke="none" stroke-width="1" fill="none" fill-rule="evenodd">
        <g id="01-Landing-Page-Alert" transform="translate(-104.000000, -520.000000)">
            <g id="Group-2" transform="translate(104.000000, 520.000000)">
                <g id="Group">
                    <g id="Group-3">
                        <path d="M12,0 L105,1.77635684e-15 C111.627417,5.58920087e-16 117,5.372583 117,12 L117,12 C117,18.627417 111.627417,24 105,24 L12,24 C5.372583,24 2.21279066e-14,18.627417 2.13162821e-14,12 L1.59872116e-14,12 C1.51755871e-14,5.372583 5.372583,2.99379359e-15 12,1.77635684e-15 Z" id="Rectangle" fill-opacity="0.25" fill="#FFFFFF"></path>
                        <path d="M25,23 L25,1 L12,1 C5.92486775,1 1,5.92486775 1,12 C1,18.0751322 5.92486775,23 12,23 L25,23 Z" id="Path" stroke="url(#radialGradient-1)" stroke-width="2"></path>
                        <path d="M116,23 L116,1 L103,1 C96.9248678,1 92,5.92486775 92,12 C92,18.0751322 96.9248678,23 103,23 L116,23 Z" id="Path" stroke="url(#radialGradient-1)" stroke-width="2" transform="translate(104.000000, 12.000000) rotate(-180.000000) translate(-104.000000, -12.000000) "></path>
                    </g>
                </g>
            </g>
        </g>
    </g>
</svg>