<?xml version="1.0" encoding="UTF-8"?>
<svg width="270px" height="24px" viewBox="0 0 270 24" version="1.1" xmlns="http://www.w3.org/2000/svg" xmlns:xlink="http://www.w3.org/1999/xlink">
    <!-- Generator: Sketch 52.5 (67469) - http://www.bohemiancoding.com/sketch -->
    <title>Combined Shape</title>
    <desc>Created with Sketch.</desc>
    <defs>
        <polygon id="path-1" points="0 2.91780489e-13 269.998225 0 269.998225 25 0 25"></polygon>
        <linearGradient x1="50%" y1="-44.3937912%" x2="50%" y2="122.38258%" id="linearGradient-3">
            <stop stop-color="#1D1B1C" offset="0%"></stop>
            <stop stop-color="#0F3B5F" offset="100%"></stop>
        </linearGradient>
        <radialGradient cx="50%" cy="2.06221538%" fx="50%" fy="2.06221538%" r="49.347776%" gradientTransform="translate(0.500000,0.020622),scale(1.000000,0.808405),rotate(-90.000000),scale(1.000000,6.702949),translate(-0.500000,-0.020622)" id="radialGradient-4">
            <stop stop-color="#FFFFFF" offset="0%"></stop>
            <stop stop-color="#4B8AC4" offset="100%"></stop>
        </radialGradient>
        <linearGradient x1="-29.6899866%" y1="52.4954065%" x2="131.235494%" y2="52.4954065%" id="linearGradient-5">
            <stop stop-color="#CD8131" offset="0%"></stop>
            <stop stop-color="#EEBB3F" offset="28.1155597%"></stop>
            <stop stop-color="#FCF2DF" offset="100%"></stop>
        </linearGradient>
        <path d="M135.005045,21.9467604 L270,1 L270,274.4566 C270,284.905264 263.239925,294.15329 253.284126,297.324514 L135.005045,335 L16.7219657,297.399777 C6.75912186,294.232755 -0.00762628984,284.981046 -0.00734554566,274.526942 L-5.40739328e-14,1 L135.005045,21.9467604 Z" id="path-6"></path>
    </defs>
    <g id="Page-1" stroke="none" stroke-width="1" fill="none" fill-rule="evenodd">
        <g id="tameng-reward-atas" transform="translate(-25.000000, -118.000000)">
            <g id="Combined-Shape" transform="translate(25.000000, 117.000000)">
                <mask id="mask-2" fill="white">
                    <use xlink:href="#path-1"></use>
                </mask>
                <g id="Mask"></g>
                <g mask="url(#mask-2)">
                    <use fill="url(#linearGradient-3)" fill-rule="evenodd" xlink:href="#path-6"></use>
                    <use fill="url(#radialGradient-4)" fill-rule="evenodd" style="mix-blend-mode: overlay;" xlink:href="#path-6"></use>
                    <path stroke="url(#linearGradient-5)" stroke-width="2" d="M0.999968658,2.16711554 L0.992654454,274.526969 C0.992385407,284.545485 7.47718572,293.411706 17.0249111,296.446769 L135.004737,333.950593 L252.980621,296.371685 C262.521594,293.332594 269,284.469903 269,274.4566 L269,2.16713378 L135.005051,22.9587263 L0.999968658,2.16711554 Z" stroke-linejoin="square"></path>
                </g>
            </g>
        </g>
    </g>
</svg>