<?xml version="1.0" encoding="UTF-8"?>
<svg width="270px" height="25px" viewBox="0 0 270 25" version="1.1" xmlns="http://www.w3.org/2000/svg" xmlns:xlink="http://www.w3.org/1999/xlink">
    <!-- Generator: Sketch 52.5 (67469) - http://www.bohemiancoding.com/sketch -->
    <title>Combined Shape Copy</title>
    <desc>Created with Sketch.</desc>
    <defs>
        <linearGradient x1="50%" y1="-41.0491073%" x2="50%" y2="100%" id="linearGradient-1">
            <stop stop-color="#1D1B1C" offset="0%"></stop>
            <stop stop-color="#0F3B5F" offset="100%"></stop>
        </linearGradient>
        <radialGradient cx="51.9967361%" cy="7.94020227%" fx="51.9967361%" fy="7.94020227%" r="79.5353228%" gradientTransform="translate(0.519967,0.079402),scale(1.000000,0.992647),rotate(-90.000000),scale(1.000000,6.702949),translate(-0.519967,-0.079402)" id="radialGradient-2">
            <stop stop-color="#FFFFFF" offset="0%"></stop>
            <stop stop-color="#4B8AC4" offset="100%"></stop>
        </radialGradient>
        <linearGradient x1="-36.3771533%" y1="41.939114%" x2="138.247454%" y2="41.939114%" id="linearGradient-3">
            <stop stop-color="#CD8131" offset="0%"></stop>
            <stop stop-color="#EEBB3F" offset="31.6314837%"></stop>
            <stop stop-color="#FCF2DF" offset="100%"></stop>
        </linearGradient>
        <path d="M159.987399,148.94676 L295,128 L295,339.455904 C295,349.904903 288.239499,359.153144 278.283262,362.324094 L159.987399,400 L41.7155034,362.324694 C31.7598931,359.153352 25,349.905419 25,339.456898 L25,128 L159.987399,148.94676 Z" id="path-4"></path>
    </defs>
    <g id="Page-1" stroke="none" stroke-width="1" fill="none" fill-rule="evenodd">
        <g id="EXIT-PROMPT" transform="translate(-25.000000, -128.000000)">
            <g id="Combined-Shape-Copy">
                <use fill="url(#linearGradient-1)" fill-rule="evenodd" xlink:href="#path-4"></use>
                <use fill="url(#radialGradient-2)" fill-rule="evenodd" style="mix-blend-mode: overlay;" xlink:href="#path-4"></use>
                <path stroke="url(#linearGradient-3)" stroke-width="2" d="M26,129.167144 L26,339.456898 C26,349.470064 32.4782309,358.332667 42.0190241,361.37187 L159.987427,398.950498 L277.979793,361.371252 C287.521186,358.332425 294,349.469528 294,339.455904 L294,129.16711 L159.987385,149.958726 L26,129.167144 Z" stroke-linejoin="square"></path>
            </g>
        </g>
    </g>
</svg>