<svg xmlns="http://www.w3.org/2000/svg" xmlns:xlink="http://www.w3.org/1999/xlink" width="16" height="16" viewBox="0 0 16 16">
    <defs>
        <path id="a" d="M0 .058h12v2.4H0z"/>
        <path id="c" d="M0 0h4.19v4.2H0z"/>
    </defs>
    <g fill="none" fill-rule="evenodd">
        <g transform="translate(2 5.6)">
            <mask id="b" fill="#fff">
                <use xlink:href="#a"/>
            </mask>
            <path fill="#FFF" d="M11.398.058H.602A.602.602 0 0 0 0 .66v1.196c0 .333.27.602.602.602h10.796c.332 0 .602-.27.602-.602V.66a.603.603 0 0 0-.602-.602" mask="url(#b)"/>
        </g>
        <path fill="#FFF" d="M12.5 8.53h-9a.6.6 0 0 0-.6.601V13.4c0 .332.27.6.6.6h9a.6.6 0 0 0 .6-.6V9.131a.6.6 0 0 0-.6-.6M10.786 2.823a.402.402 0 0 0-.101.014c-.534.14-1.152 1.221-1.571 2.244 1.043-.448 2.142-1.096 2.256-1.624.014-.057.046-.208-.199-.44-.163-.154-.288-.194-.385-.194M8.42 6.2a.411.411 0 0 1-.392-.535c.17-.542 1.082-3.265 2.447-3.624.306-.081.773-.08 1.258.377.483.455.505.912.44 1.216-.298 1.362-3.07 2.359-3.622 2.544a.426.426 0 0 1-.13.022"/>
        <g transform="translate(3.8 2)">
            <mask id="d" fill="#fff">
                <use xlink:href="#c"/>
            </mask>
            <path fill="#FFF" d="M1.414.823c-.097 0-.222.04-.385.195-.245.23-.212.383-.2.44.116.527 1.214 1.174 2.257 1.623C2.666 2.058 2.049.978 1.516.837a.397.397 0 0 0-.102-.014zM3.78 4.2a.41.41 0 0 1-.13-.021C3.095 3.993.324 2.996.026 1.633-.039 1.33-.017.873.467.418.95-.04 1.416-.041 1.723.04 3.09.4 4.002 3.123 4.17 3.666a.41.41 0 0 1-.392.534z" mask="url(#d)"/>
        </g>
    </g>
</svg>
