<svg xmlns="http://www.w3.org/2000/svg" width="8" height="11" viewBox="0 0 8 11">
    <g fill="#FFF" fill-rule="evenodd">
        <path d="M.36 9.281a7.58 7.58 0 0 1-.067.009 1.682 1.682 0 0 1-.16-1.602l.011-.027.212-.503a3.616 3.616 0 0 1 1.026-1.383c.256-.211.54-.386.848-.515.408-.172.843-.26 1.282-.26h.975c.043 0 .086.005.129.007a3.306 3.306 0 0 1 2.002.769c.44.362.794.835 1.024 1.382l.213.503.011.027c.388.917-.105 1.98-1.031 2.224l-.404.106a9.55 9.55 0 0 1-4.863 0l-.404-.106a1.526 1.526 0 0 1-.871-.622l.067-.009zM2.723.382a2.333 2.333 0 1 1 0 0z"/>
    </g>
</svg>
