<svg xmlns="http://www.w3.org/2000/svg" width="24" height="24" viewBox="0 0 24 24">
    <g fill="none" fill-rule="evenodd">
        <path d="M0 0h24v24H0z"/>
        <path d="M10.28 2.5a7.78 7.78 0 0 0 0 15.56V2.5z"/>
        <path fill="#BDBDBD" fill-rule="nonzero" d="M16.82 15.756l5.21 5.21a.75.75 0 0 1-1.06 1.061l-5.21-5.21a8.53 8.53 0 1 1 1.06-1.061zM3.25 10.28a7.03 7.03 0 1 0 14.06 0 7.03 7.03 0 0 0-14.06 0z"/>
        <path fill="#BDBDBD" fill-rule="nonzero" d="M9.632 5.836a5.091 5.091 0 0 1 5.092 5.092.375.375 0 1 0 .75 0 5.841 5.841 0 0 0-5.842-5.842.375.375 0 0 0 0 .75z"/>
    </g>
</svg>
